<svg width="362" height="50" viewBox="0 0 362 50" fill="none" xmlns="http://www.w3.org/2000/svg">
<rect width="139" height="50" rx="5" fill="#FAE0E1"/>
<path d="M29.908 31.168C30.6547 31.168 31.322 31.042 31.91 30.79C32.5073 30.538 33.0113 30.2067 33.422 29.796C33.8327 29.376 34.1267 28.9187 34.304 28.424L32.596 27.626C32.3907 28.1487 32.0547 28.5827 31.588 28.928C31.1307 29.264 30.5707 29.432 29.908 29.432C29.2547 29.432 28.6807 29.278 28.186 28.97C27.6913 28.662 27.304 28.2373 27.024 27.696C26.744 27.1453 26.604 26.506 26.604 25.778C26.604 25.05 26.744 24.4153 27.024 23.874C27.304 23.3233 27.6913 22.8987 28.186 22.6C28.6807 22.292 29.2547 22.138 29.908 22.138C30.5707 22.138 31.1307 22.3107 31.588 22.656C32.0547 22.992 32.3907 23.4213 32.596 23.944L34.304 23.146C34.1267 22.6513 33.8327 22.1987 33.422 21.788C33.0113 21.368 32.5073 21.032 31.91 20.78C31.322 20.528 30.6547 20.402 29.908 20.402C29.1613 20.402 28.4707 20.5373 27.836 20.808C27.2013 21.0693 26.6507 21.4427 26.184 21.928C25.7173 22.404 25.3533 22.9733 25.092 23.636C24.8307 24.2893 24.7 25.0033 24.7 25.778C24.7 26.5527 24.8307 27.2713 25.092 27.934C25.3533 28.5873 25.7173 29.1567 26.184 29.642C26.6507 30.1273 27.2013 30.5053 27.836 30.776C28.4707 31.0373 29.1613 31.168 29.908 31.168ZM39.2831 31.168C40.0204 31.168 40.6924 31 41.2991 30.664C41.9057 30.3187 42.3911 29.8473 42.7551 29.25C43.1191 28.6433 43.3011 27.9573 43.3011 27.192C43.3011 26.4267 43.1191 25.7453 42.7551 25.148C42.4004 24.5507 41.9197 24.0793 41.3131 23.734C40.7064 23.3887 40.0297 23.216 39.2831 23.216C38.5271 23.216 37.8457 23.3887 37.2391 23.734C36.6324 24.0793 36.1471 24.5507 35.7831 25.148C35.4284 25.7453 35.2511 26.4267 35.2511 27.192C35.2511 27.9573 35.4284 28.6387 35.7831 29.236C36.1471 29.8333 36.6324 30.3047 37.2391 30.65C37.8551 30.9953 38.5364 31.168 39.2831 31.168ZM39.2831 29.488C38.8724 29.488 38.5037 29.39 38.1771 29.194C37.8597 28.998 37.6077 28.7273 37.4211 28.382C37.2437 28.0273 37.1551 27.6307 37.1551 27.192C37.1551 26.7533 37.2437 26.3613 37.4211 26.016C37.6077 25.6707 37.8597 25.4 38.1771 25.204C38.5037 24.9987 38.8724 24.896 39.2831 24.896C39.6937 24.896 40.0531 24.9987 40.3611 25.204C40.6784 25.4 40.9257 25.6707 41.1031 26.016C41.2897 26.3613 41.3831 26.7533 41.3831 27.192C41.3831 27.6307 41.2897 28.0273 41.1031 28.382C40.9257 28.7273 40.6784 28.998 40.3611 29.194C40.0531 29.39 39.6937 29.488 39.2831 29.488ZM44.6919 31H46.5259V26.534C46.5259 26.0393 46.6659 25.6427 46.9459 25.344C47.2352 25.0453 47.6086 24.896 48.0659 24.896C48.5232 24.896 48.8919 25.0453 49.1719 25.344C49.4612 25.6333 49.6059 26.03 49.6059 26.534V31H51.4399V26.1C51.4399 25.5307 51.3186 25.0313 51.0759 24.602C50.8332 24.1633 50.4926 23.8227 50.0539 23.58C49.6246 23.3373 49.1299 23.216 48.5699 23.216C48.0939 23.216 47.6646 23.3093 47.2819 23.496C46.9086 23.6827 46.6192 23.958 46.4139 24.322V23.384H44.6919V31ZM56.4627 31.084C56.7707 31.084 57.0741 31.0607 57.3727 31.014V29.432C57.1954 29.46 57.0321 29.474 56.8827 29.474C56.4347 29.474 56.1081 29.3713 55.9027 29.166C55.6974 28.9607 55.5947 28.6667 55.5947 28.284V25.022H57.3447V23.384H55.5947V21.648H53.7607V22.236C53.7607 22.6093 53.6581 22.894 53.4527 23.09C53.2474 23.286 52.9581 23.384 52.5847 23.384H52.4447V25.022H53.7607V28.382C53.7607 29.2313 53.9941 29.894 54.4607 30.37C54.9367 30.846 55.6041 31.084 56.4627 31.084ZM61.0429 31.168C62.0322 31.168 62.8256 30.8413 63.4229 30.188V31H65.1589V25.932C65.1589 25.4 65.0236 24.9287 64.7529 24.518C64.4822 24.1073 64.1089 23.79 63.6329 23.566C63.1662 23.3327 62.6202 23.216 61.9949 23.216C61.2296 23.216 60.5482 23.398 59.9509 23.762C59.3536 24.126 58.9429 24.6067 58.7189 25.204L60.2169 25.932C60.3569 25.5867 60.5762 25.3113 60.8749 25.106C61.1736 24.8913 61.5236 24.784 61.9249 24.784C62.3449 24.784 62.6809 24.896 62.9329 25.12C63.1942 25.3347 63.3249 25.6053 63.3249 25.932V26.184L61.0569 26.548C60.1609 26.6973 59.4982 26.982 59.0689 27.402C58.6396 27.822 58.4249 28.3493 58.4249 28.984C58.4249 29.656 58.6629 30.188 59.1389 30.58C59.6149 30.972 60.2496 31.168 61.0429 31.168ZM60.3289 28.914C60.3289 28.382 60.6882 28.046 61.4069 27.906L63.3249 27.584V27.892C63.3249 28.4147 63.1429 28.858 62.7789 29.222C62.4242 29.586 61.9576 29.768 61.3789 29.768C61.0709 29.768 60.8189 29.6933 60.6229 29.544C60.4269 29.3853 60.3289 29.1753 60.3289 28.914ZM70.522 31.168C71.0727 31.168 71.5813 31.0747 72.048 30.888C72.5147 30.692 72.916 30.426 73.252 30.09C73.588 29.7447 73.8307 29.3573 73.98 28.928L72.37 28.2C72.2207 28.6013 71.9827 28.9187 71.656 29.152C71.3387 29.376 70.9607 29.488 70.522 29.488C70.1207 29.488 69.7613 29.39 69.444 29.194C69.136 28.998 68.8933 28.7273 68.716 28.382C68.5387 28.0273 68.45 27.6307 68.45 27.192C68.45 26.744 68.5387 26.3473 68.716 26.002C68.8933 25.6567 69.136 25.386 69.444 25.19C69.7613 24.994 70.1207 24.896 70.522 24.896C70.9607 24.896 71.3387 25.0127 71.656 25.246C71.9827 25.4793 72.2207 25.7873 72.37 26.17L73.98 25.47C73.8213 25.022 73.574 24.63 73.238 24.294C72.902 23.9487 72.5007 23.6827 72.034 23.496C71.5673 23.3093 71.0633 23.216 70.522 23.216C69.766 23.216 69.0847 23.3887 68.478 23.734C67.8807 24.0793 67.4093 24.5507 67.064 25.148C66.7187 25.7453 66.546 26.422 66.546 27.178C66.546 27.934 66.7187 28.6153 67.064 29.222C67.4093 29.8193 67.8807 30.2953 68.478 30.65C69.0847 30.9953 69.766 31.168 70.522 31.168ZM78.8436 31.084C79.1516 31.084 79.4549 31.0607 79.7536 31.014V29.432C79.5762 29.46 79.4129 29.474 79.2636 29.474C78.8156 29.474 78.4889 29.3713 78.2836 29.166C78.0782 28.9607 77.9756 28.6667 77.9756 28.284V25.022H79.7256V23.384H77.9756V21.648H76.1416V22.236C76.1416 22.6093 76.0389 22.894 75.8336 23.09C75.6282 23.286 75.3389 23.384 74.9656 23.384H74.8256V25.022H76.1416V28.382C76.1416 29.2313 76.3749 29.894 76.8416 30.37C77.3176 30.846 77.9849 31.084 78.8436 31.084ZM83.7971 31H85.7011V24.182L90.6571 31H92.1551V20.57H90.2511V27.262L85.2811 20.57H83.7971V31ZM97.744 31.168C98.4813 31.168 99.1533 31 99.76 30.664C100.367 30.3187 100.852 29.8473 101.216 29.25C101.58 28.6433 101.762 27.9573 101.762 27.192C101.762 26.4267 101.58 25.7453 101.216 25.148C100.861 24.5507 100.381 24.0793 99.774 23.734C99.1673 23.3887 98.4907 23.216 97.744 23.216C96.988 23.216 96.3067 23.3887 95.7 23.734C95.0933 24.0793 94.608 24.5507 94.244 25.148C93.8893 25.7453 93.712 26.4267 93.712 27.192C93.712 27.9573 93.8893 28.6387 94.244 29.236C94.608 29.8333 95.0933 30.3047 95.7 30.65C96.316 30.9953 96.9973 31.168 97.744 31.168ZM97.744 29.488C97.3333 29.488 96.9647 29.39 96.638 29.194C96.3207 28.998 96.0687 28.7273 95.882 28.382C95.7047 28.0273 95.616 27.6307 95.616 27.192C95.616 26.7533 95.7047 26.3613 95.882 26.016C96.0687 25.6707 96.3207 25.4 96.638 25.204C96.9647 24.9987 97.3333 24.896 97.744 24.896C98.1547 24.896 98.514 24.9987 98.822 25.204C99.1393 25.4 99.3867 25.6707 99.564 26.016C99.7507 26.3613 99.844 26.7533 99.844 27.192C99.844 27.6307 99.7507 28.0273 99.564 28.382C99.3867 28.7273 99.1393 28.998 98.822 29.194C98.514 29.39 98.1547 29.488 97.744 29.488ZM104.934 31H106.558L108.35 25.862L110.114 31H111.752L114.37 23.384H112.438L110.842 28.172L109.162 23.384H107.538L105.844 28.186L104.248 23.384H102.316L104.934 31Z" fill="#131126"/>
<path d="M178.97 32.5305C178.703 32.2642 178.679 31.8475 178.897 31.5539L178.97 31.4698L185.439 25.0001L178.97 18.5305C178.703 18.2642 178.679 17.8475 178.897 17.5539L178.97 17.4698C179.236 17.2035 179.653 17.1793 179.946 17.3972L180.03 17.4698L187.03 24.4698C187.297 24.7361 187.321 25.1527 187.103 25.4463L187.03 25.5305L180.03 32.5305C179.737 32.8233 179.263 32.8233 178.97 32.5305Z" fill="#3C3679"/>
<rect x="159.5" y="0.5" width="47" height="49" rx="4.5" stroke="#FAE0E1"/>
<path d="M228.008 31V20.57H232.404C233.095 20.57 233.683 20.6913 234.168 20.934C234.663 21.1673 235.041 21.5033 235.302 21.942C235.573 22.3713 235.708 22.894 235.708 23.51C235.708 23.986 235.577 24.434 235.316 24.854C235.064 25.2647 234.658 25.6053 234.098 25.876V24.994C234.611 25.19 235.017 25.4327 235.316 25.722C235.615 26.0113 235.825 26.3333 235.946 26.688C236.067 27.0427 236.128 27.416 236.128 27.808C236.128 28.8067 235.797 29.5907 235.134 30.16C234.481 30.72 233.571 31 232.404 31H228.008ZM229.912 29.32H232.6C233.095 29.32 233.487 29.1847 233.776 28.914C234.075 28.634 234.224 28.2653 234.224 27.808C234.224 27.3507 234.075 26.982 233.776 26.702C233.487 26.422 233.095 26.282 232.6 26.282H229.912V29.32ZM229.912 24.616H232.502C232.894 24.616 233.207 24.504 233.44 24.28C233.673 24.0467 233.79 23.748 233.79 23.384C233.79 23.02 233.673 22.7307 233.44 22.516C233.207 22.3013 232.894 22.194 232.502 22.194H229.912V24.616ZM241.258 31.168C240.511 31.168 239.83 30.9953 239.214 30.65C238.607 30.3047 238.122 29.8333 237.758 29.236C237.403 28.6387 237.226 27.9573 237.226 27.192C237.226 26.4267 237.403 25.7453 237.758 25.148C238.122 24.5507 238.607 24.0793 239.214 23.734C239.82 23.3887 240.502 23.216 241.258 23.216C242.004 23.216 242.681 23.3887 243.288 23.734C243.894 24.0793 244.375 24.5507 244.73 25.148C245.094 25.736 245.276 26.4173 245.276 27.192C245.276 27.9573 245.094 28.6387 244.73 29.236C244.366 29.8333 243.88 30.3047 243.274 30.65C242.667 30.9953 241.995 31.168 241.258 31.168ZM241.258 29.488C241.668 29.488 242.028 29.39 242.336 29.194C242.653 28.998 242.9 28.7273 243.078 28.382C243.264 28.0273 243.358 27.6307 243.358 27.192C243.358 26.744 243.264 26.352 243.078 26.016C242.9 25.6707 242.653 25.4 242.336 25.204C242.028 24.9987 241.668 24.896 241.258 24.896C240.838 24.896 240.469 24.9987 240.152 25.204C239.834 25.4 239.582 25.6707 239.396 26.016C239.218 26.352 239.13 26.744 239.13 27.192C239.13 27.6307 239.218 28.0273 239.396 28.382C239.582 28.7273 239.834 28.998 240.152 29.194C240.469 29.39 240.838 29.488 241.258 29.488ZM250.391 31.168C249.644 31.168 248.963 30.9953 248.347 30.65C247.74 30.3047 247.255 29.8333 246.891 29.236C246.536 28.6387 246.359 27.9573 246.359 27.192C246.359 26.4267 246.536 25.7453 246.891 25.148C247.255 24.5507 247.74 24.0793 248.347 23.734C248.953 23.3887 249.635 23.216 250.391 23.216C251.137 23.216 251.814 23.3887 252.421 23.734C253.027 24.0793 253.508 24.5507 253.863 25.148C254.227 25.736 254.409 26.4173 254.409 27.192C254.409 27.9573 254.227 28.6387 253.863 29.236C253.499 29.8333 253.013 30.3047 252.407 30.65C251.8 30.9953 251.128 31.168 250.391 31.168ZM250.391 29.488C250.801 29.488 251.161 29.39 251.469 29.194C251.786 28.998 252.033 28.7273 252.211 28.382C252.397 28.0273 252.491 27.6307 252.491 27.192C252.491 26.744 252.397 26.352 252.211 26.016C252.033 25.6707 251.786 25.4 251.469 25.204C251.161 24.9987 250.801 24.896 250.391 24.896C249.971 24.896 249.602 24.9987 249.285 25.204C248.967 25.4 248.715 25.6707 248.529 26.016C248.351 26.352 248.263 26.744 248.263 27.192C248.263 27.6307 248.351 28.0273 248.529 28.382C248.715 28.7273 248.967 28.998 249.285 29.194C249.602 29.39 249.971 29.488 250.391 29.488ZM255.799 31V20.402H257.633V27.346L256.933 27.136L260.517 23.384H262.799L259.985 26.45L262.855 31H260.755L258.263 27.052L259.355 26.828L257.059 29.292L257.633 28.172V31H255.799ZM268.678 31.168C268.146 31.168 267.684 31.0793 267.292 30.902C266.9 30.7247 266.596 30.4727 266.382 30.146C266.167 29.81 266.06 29.4227 266.06 28.984C266.06 28.564 266.153 28.1907 266.34 27.864C266.526 27.528 266.816 27.248 267.208 27.024C267.6 26.8 268.094 26.6413 268.692 26.548L271.184 26.142V27.542L269.042 27.906C268.678 27.9713 268.407 28.088 268.23 28.256C268.052 28.424 267.964 28.6433 267.964 28.914C267.964 29.1753 268.062 29.3853 268.258 29.544C268.463 29.6933 268.715 29.768 269.014 29.768C269.396 29.768 269.732 29.6887 270.022 29.53C270.32 29.362 270.549 29.1333 270.708 28.844C270.876 28.5547 270.96 28.2373 270.96 27.892V25.932C270.96 25.6053 270.829 25.3347 270.568 25.12C270.316 24.896 269.98 24.784 269.56 24.784C269.168 24.784 268.818 24.8913 268.51 25.106C268.211 25.3113 267.992 25.5867 267.852 25.932L266.354 25.204C266.503 24.8027 266.736 24.4573 267.054 24.168C267.38 23.8693 267.763 23.636 268.202 23.468C268.64 23.3 269.116 23.216 269.63 23.216C270.255 23.216 270.806 23.3327 271.282 23.566C271.758 23.79 272.126 24.1073 272.388 24.518C272.658 24.9193 272.794 25.3907 272.794 25.932V31H271.058V29.698L271.45 29.67C271.254 29.9967 271.02 30.272 270.75 30.496C270.479 30.7107 270.171 30.8787 269.826 31C269.48 31.112 269.098 31.168 268.678 31.168ZM277.131 31V20.57H280.533C281.634 20.57 282.591 20.794 283.403 21.242C284.224 21.6807 284.859 22.292 285.307 23.076C285.755 23.8507 285.979 24.7513 285.979 25.778C285.979 26.7953 285.755 27.7007 285.307 28.494C284.859 29.278 284.224 29.894 283.403 30.342C282.591 30.7807 281.634 31 280.533 31H277.131ZM279.035 29.32H280.575C281.284 29.32 281.896 29.1753 282.409 28.886C282.932 28.5873 283.338 28.1767 283.627 27.654C283.916 27.122 284.061 26.4967 284.061 25.778C284.061 25.05 283.916 24.4247 283.627 23.902C283.338 23.3793 282.932 22.9733 282.409 22.684C281.896 22.3947 281.284 22.25 280.575 22.25H279.035V29.32ZM290.952 31.168C290.168 31.168 289.482 30.9907 288.894 30.636C288.306 30.2813 287.849 29.8007 287.522 29.194C287.196 28.5873 287.032 27.9153 287.032 27.178C287.032 26.4127 287.196 25.736 287.522 25.148C287.858 24.5507 288.311 24.0793 288.88 23.734C289.459 23.3887 290.103 23.216 290.812 23.216C291.41 23.216 291.932 23.314 292.38 23.51C292.838 23.706 293.225 23.9767 293.542 24.322C293.86 24.6673 294.102 25.064 294.27 25.512C294.438 25.9507 294.522 26.4267 294.522 26.94C294.522 27.0707 294.513 27.206 294.494 27.346C294.485 27.486 294.462 27.6073 294.424 27.71H288.544V26.31H293.388L292.52 26.968C292.604 26.5387 292.581 26.156 292.45 25.82C292.329 25.484 292.124 25.218 291.834 25.022C291.554 24.826 291.214 24.728 290.812 24.728C290.43 24.728 290.089 24.826 289.79 25.022C289.492 25.2087 289.263 25.4887 289.104 25.862C288.955 26.226 288.899 26.6693 288.936 27.192C288.899 27.6587 288.96 28.074 289.118 28.438C289.286 28.7927 289.529 29.068 289.846 29.264C290.173 29.46 290.546 29.558 290.966 29.558C291.386 29.558 291.741 29.4693 292.03 29.292C292.329 29.1147 292.562 28.8767 292.73 28.578L294.214 29.306C294.065 29.67 293.832 29.992 293.514 30.272C293.197 30.552 292.819 30.7713 292.38 30.93C291.951 31.0887 291.475 31.168 290.952 31.168ZM295.913 31V23.384H297.635V25.148L297.439 24.854C297.579 24.3033 297.859 23.8927 298.279 23.622C298.699 23.3513 299.193 23.216 299.763 23.216C300.388 23.216 300.939 23.3793 301.415 23.706C301.891 24.0327 302.199 24.462 302.339 24.994L301.821 25.036C302.054 24.4293 302.404 23.9767 302.871 23.678C303.337 23.37 303.874 23.216 304.481 23.216C305.022 23.216 305.503 23.3373 305.923 23.58C306.352 23.8227 306.688 24.1633 306.931 24.602C307.173 25.0313 307.295 25.5307 307.295 26.1V31H305.461V26.534C305.461 26.198 305.4 25.9087 305.279 25.666C305.157 25.4233 304.989 25.2367 304.775 25.106C304.56 24.966 304.299 24.896 303.991 24.896C303.701 24.896 303.445 24.966 303.221 25.106C302.997 25.2367 302.824 25.4233 302.703 25.666C302.581 25.9087 302.521 26.198 302.521 26.534V31H300.687V26.534C300.687 26.198 300.626 25.9087 300.505 25.666C300.383 25.4233 300.211 25.2367 299.987 25.106C299.772 24.966 299.515 24.896 299.217 24.896C298.927 24.896 298.671 24.966 298.447 25.106C298.223 25.2367 298.05 25.4233 297.929 25.666C297.807 25.9087 297.747 26.198 297.747 26.534V31H295.913ZM312.57 31.168C311.824 31.168 311.142 30.9953 310.526 30.65C309.92 30.3047 309.434 29.8333 309.07 29.236C308.716 28.6387 308.538 27.9573 308.538 27.192C308.538 26.4267 308.716 25.7453 309.07 25.148C309.434 24.5507 309.92 24.0793 310.526 23.734C311.133 23.3887 311.814 23.216 312.57 23.216C313.317 23.216 313.994 23.3887 314.6 23.734C315.207 24.0793 315.688 24.5507 316.042 25.148C316.406 25.736 316.588 26.4173 316.588 27.192C316.588 27.9573 316.406 28.6387 316.042 29.236C315.678 29.8333 315.193 30.3047 314.586 30.65C313.98 30.9953 313.308 31.168 312.57 31.168ZM312.57 29.488C312.981 29.488 313.34 29.39 313.648 29.194C313.966 28.998 314.213 28.7273 314.39 28.382C314.577 28.0273 314.67 27.6307 314.67 27.192C314.67 26.744 314.577 26.352 314.39 26.016C314.213 25.6707 313.966 25.4 313.648 25.204C313.34 24.9987 312.981 24.896 312.57 24.896C312.15 24.896 311.782 24.9987 311.464 25.204C311.147 25.4 310.895 25.6707 310.708 26.016C310.531 26.352 310.442 26.744 310.442 27.192C310.442 27.6307 310.531 28.0273 310.708 28.382C310.895 28.7273 311.147 28.998 311.464 29.194C311.782 29.39 312.15 29.488 312.57 29.488ZM322.469 31V22.25H319.767V20.57H327.047V22.25H324.387V31H322.469ZM330.795 31.168C330.048 31.168 329.367 30.9953 328.751 30.65C328.144 30.3047 327.659 29.8333 327.295 29.236C326.94 28.6387 326.763 27.9573 326.763 27.192C326.763 26.4267 326.94 25.7453 327.295 25.148C327.659 24.5507 328.144 24.0793 328.751 23.734C329.357 23.3887 330.039 23.216 330.795 23.216C331.541 23.216 332.218 23.3887 332.825 23.734C333.431 24.0793 333.912 24.5507 334.267 25.148C334.631 25.736 334.813 26.4173 334.813 27.192C334.813 27.9573 334.631 28.6387 334.267 29.236C333.903 29.8333 333.417 30.3047 332.811 30.65C332.204 30.9953 331.532 31.168 330.795 31.168ZM330.795 29.488C331.205 29.488 331.565 29.39 331.873 29.194C332.19 28.998 332.437 28.7273 332.615 28.382C332.801 28.0273 332.895 27.6307 332.895 27.192C332.895 26.744 332.801 26.352 332.615 26.016C332.437 25.6707 332.19 25.4 331.873 25.204C331.565 24.9987 331.205 24.896 330.795 24.896C330.375 24.896 330.006 24.9987 329.689 25.204C329.371 25.4 329.119 25.6707 328.933 26.016C328.755 26.352 328.667 26.744 328.667 27.192C328.667 27.6307 328.755 28.0273 328.933 28.382C329.119 28.7273 329.371 28.998 329.689 29.194C330.006 29.39 330.375 29.488 330.795 29.488ZM339.746 31.168C339.008 31.168 338.35 30.9953 337.772 30.65C337.193 30.2953 336.736 29.8147 336.4 29.208C336.064 28.6013 335.896 27.9293 335.896 27.192C335.896 26.4453 336.064 25.7733 336.4 25.176C336.736 24.5787 337.193 24.1027 337.772 23.748C338.36 23.3933 339.013 23.216 339.732 23.216C340.31 23.216 340.824 23.3327 341.272 23.566C341.729 23.79 342.088 24.1073 342.35 24.518L342.07 24.896V20.402H343.904V31H342.168V29.53L342.364 29.894C342.102 30.3047 341.738 30.622 341.272 30.846C340.805 31.0607 340.296 31.168 339.746 31.168ZM339.942 29.488C340.362 29.488 340.73 29.39 341.048 29.194C341.365 28.998 341.612 28.7273 341.79 28.382C341.976 28.0367 342.07 27.64 342.07 27.192C342.07 26.7533 341.976 26.3613 341.79 26.016C341.612 25.6613 341.365 25.386 341.048 25.19C340.73 24.994 340.362 24.896 339.942 24.896C339.531 24.896 339.162 24.9987 338.836 25.204C338.509 25.4 338.252 25.6707 338.066 26.016C337.888 26.352 337.8 26.744 337.8 27.192C337.8 27.64 337.888 28.0367 338.066 28.382C338.252 28.7273 338.509 28.998 338.836 29.194C339.162 29.39 339.531 29.488 339.942 29.488ZM347.92 31.168C347.388 31.168 346.926 31.0793 346.534 30.902C346.142 30.7247 345.839 30.4727 345.624 30.146C345.409 29.81 345.302 29.4227 345.302 28.984C345.302 28.564 345.395 28.1907 345.582 27.864C345.769 27.528 346.058 27.248 346.45 27.024C346.842 26.8 347.337 26.6413 347.934 26.548L350.426 26.142V27.542L348.284 27.906C347.92 27.9713 347.649 28.088 347.472 28.256C347.295 28.424 347.206 28.6433 347.206 28.914C347.206 29.1753 347.304 29.3853 347.5 29.544C347.705 29.6933 347.957 29.768 348.256 29.768C348.639 29.768 348.975 29.6887 349.264 29.53C349.563 29.362 349.791 29.1333 349.95 28.844C350.118 28.5547 350.202 28.2373 350.202 27.892V25.932C350.202 25.6053 350.071 25.3347 349.81 25.12C349.558 24.896 349.222 24.784 348.802 24.784C348.41 24.784 348.06 24.8913 347.752 25.106C347.453 25.3113 347.234 25.5867 347.094 25.932L345.596 25.204C345.745 24.8027 345.979 24.4573 346.296 24.168C346.623 23.8693 347.005 23.636 347.444 23.468C347.883 23.3 348.359 23.216 348.872 23.216C349.497 23.216 350.048 23.3327 350.524 23.566C351 23.79 351.369 24.1073 351.63 24.518C351.901 24.9193 352.036 25.3907 352.036 25.932V31H350.3V29.698L350.692 29.67C350.496 29.9967 350.263 30.272 349.992 30.496C349.721 30.7107 349.413 30.8787 349.068 31C348.723 31.112 348.34 31.168 347.92 31.168ZM354.655 34.094C354.45 34.094 354.249 34.0753 354.053 34.038C353.857 34.01 353.68 33.9587 353.521 33.884V32.344C353.642 32.372 353.787 32.4 353.955 32.428C354.132 32.456 354.296 32.47 354.445 32.47C354.865 32.47 355.168 32.372 355.355 32.176C355.551 31.98 355.724 31.7233 355.873 31.406L356.377 30.23L356.349 31.77L353.031 23.384H355.005L357.329 29.572H356.629L358.939 23.384H360.927L357.609 31.77C357.413 32.2647 357.175 32.6847 356.895 33.03C356.615 33.3753 356.288 33.6367 355.915 33.814C355.551 34.0007 355.131 34.094 354.655 34.094Z" fill="#131126"/>
</svg>
