<svg width="115" height="50" viewBox="0 0 115 50" fill="none" xmlns="http://www.w3.org/2000/svg">
<path d="M86.9697 32.5305C86.7034 32.2642 86.6792 31.8475 86.8971 31.5539L86.9697 31.4698L93.439 25.0001L86.9697 18.5305C86.7034 18.2642 86.6792 17.8475 86.8971 17.5539L86.9697 17.4698C87.2359 17.2035 87.6526 17.1793 87.9462 17.3972L88.0303 17.4698L95.0303 24.4698C95.2966 24.7361 95.3208 25.1527 95.1029 25.4463L95.0303 25.5305L88.0303 32.5305C87.7374 32.8233 87.2626 32.8233 86.9697 32.5305Z" fill="#3C3679"/>
<rect x="67.5" y="0.5" width="46.3743" height="49" rx="4.5" stroke="#FAE0E1"/>
<path d="M27.4047 17.4695C27.6709 17.7358 27.6951 18.1525 27.4773 18.4461L27.4047 18.5302L20.9353 24.9999L27.4047 31.4695C27.6709 31.7358 27.6951 32.1525 27.4773 32.4461L27.4047 32.5302C27.1384 32.7965 26.7217 32.8207 26.4281 32.6028L26.344 32.5302L19.344 25.5302C19.0777 25.2639 19.0535 24.8473 19.2714 24.5537L19.344 24.4695L26.344 17.4695C26.6369 17.1767 27.1118 17.1767 27.4047 17.4695Z" fill="#3C3679"/>
<rect x="46.8743" y="49.5" width="46.3743" height="49" rx="4.5" transform="rotate(-180 46.8743 49.5)" stroke="#FAE0E1"/>
</svg>
