<svg width="491" height="62" viewBox="0 0 491 62" fill="none" xmlns="http://www.w3.org/2000/svg">
<rect y="6" width="47.3743" height="50" rx="5" fill="#FAE0E1"/>
<path fill-rule="evenodd" clip-rule="evenodd" d="M19.665 22.5001C17.135 22.5001 15.5 24.2331 15.5 26.9161V35.0841C15.5 37.7671 17.135 39.5001 19.665 39.5001H28.333C30.864 39.5001 32.5 37.7671 32.5 35.0841V26.9161C32.5 24.2331 30.864 22.5001 28.334 22.5001H19.665ZM28.333 41.0001H19.665C16.276 41.0001 14 38.6221 14 35.0841V26.9161C14 23.3781 16.276 21.0001 19.665 21.0001H28.334C31.723 21.0001 34 23.3781 34 26.9161V35.0841C34 38.6221 31.723 41.0001 28.333 41.0001Z" fill="#131126"/>
<path fill-rule="evenodd" clip-rule="evenodd" d="M22.8135 34.1231C22.6225 34.1231 22.4295 34.0501 22.2835 33.9031L19.9095 31.5301C19.6165 31.2371 19.6165 30.7631 19.9095 30.4701C20.2025 30.1771 20.6765 30.1771 20.9695 30.4701L22.8135 32.3121L27.0295 28.0971C27.3225 27.8041 27.7965 27.8041 28.0895 28.0971C28.3825 28.3901 28.3825 28.8641 28.0895 29.1571L23.3435 33.9031C23.1975 34.0501 23.0055 34.1231 22.8135 34.1231Z" fill="#131126"/>
<path d="M71.5263 23V7.904H68.0703V5.12H74.7903V23H71.5263ZM85.55 23.288C84.126 23.288 82.878 22.904 81.806 22.136C80.734 21.368 79.894 20.288 79.286 18.896C78.694 17.504 78.398 15.888 78.398 14.048C78.398 12.192 78.694 10.576 79.286 9.2C79.878 7.824 80.71 6.752 81.782 5.984C82.854 5.216 84.102 4.832 85.526 4.832C86.982 4.832 88.238 5.216 89.294 5.984C90.366 6.752 91.206 7.832 91.814 9.224C92.422 10.6 92.726 12.208 92.726 14.048C92.726 15.888 92.422 17.504 91.814 18.896C91.222 20.272 90.39 21.352 89.318 22.136C88.246 22.904 86.99 23.288 85.55 23.288ZM85.574 20.312C86.39 20.312 87.086 20.064 87.662 19.568C88.238 19.056 88.678 18.336 88.982 17.408C89.302 16.464 89.462 15.344 89.462 14.048C89.462 12.752 89.302 11.64 88.982 10.712C88.678 9.768 88.23 9.048 87.638 8.552C87.062 8.056 86.358 7.808 85.526 7.808C84.726 7.808 84.038 8.056 83.462 8.552C82.886 9.048 82.438 9.768 82.118 10.712C81.814 11.64 81.662 12.752 81.662 14.048C81.662 15.328 81.814 16.44 82.118 17.384C82.438 18.312 82.886 19.032 83.462 19.544C84.054 20.056 84.758 20.312 85.574 20.312ZM102.542 23.288C101.118 23.288 99.8701 22.904 98.7981 22.136C97.7261 21.368 96.8861 20.288 96.2781 18.896C95.6861 17.504 95.3901 15.888 95.3901 14.048C95.3901 12.192 95.6861 10.576 96.2781 9.2C96.8701 7.824 97.7021 6.752 98.7741 5.984C99.8461 5.216 101.094 4.832 102.518 4.832C103.974 4.832 105.23 5.216 106.286 5.984C107.358 6.752 108.198 7.832 108.806 9.224C109.414 10.6 109.718 12.208 109.718 14.048C109.718 15.888 109.414 17.504 108.806 18.896C108.214 20.272 107.382 21.352 106.31 22.136C105.238 22.904 103.982 23.288 102.542 23.288ZM102.566 20.312C103.382 20.312 104.078 20.064 104.654 19.568C105.23 19.056 105.67 18.336 105.974 17.408C106.294 16.464 106.454 15.344 106.454 14.048C106.454 12.752 106.294 11.64 105.974 10.712C105.67 9.768 105.222 9.048 104.63 8.552C104.054 8.056 103.35 7.808 102.518 7.808C101.718 7.808 101.03 8.056 100.454 8.552C99.8781 9.048 99.4301 9.768 99.1101 10.712C98.8061 11.64 98.6541 12.752 98.6541 14.048C98.6541 15.328 98.8061 16.44 99.1101 17.384C99.4301 18.312 99.8781 19.032 100.454 19.544C101.046 20.056 101.75 20.312 102.566 20.312ZM117.614 23V18.344H112.958V15.632H117.614V11H120.326V15.632H124.958V18.344H120.326V23H117.614ZM72.7823 49.192C72.0249 49.192 71.3209 49.0533 70.6703 48.776C70.0303 48.4987 69.4756 48.1147 69.0063 47.624C68.5476 47.1227 68.2116 46.5413 67.9983 45.88L69.8063 45.096C70.0943 45.7787 70.5103 46.3173 71.0543 46.712C71.5983 47.096 72.2116 47.288 72.8943 47.288C73.2783 47.288 73.6089 47.2293 73.8863 47.112C74.1743 46.984 74.3929 46.8133 74.5423 46.6C74.7023 46.3867 74.7823 46.1307 74.7823 45.832C74.7823 45.48 74.6756 45.192 74.4623 44.968C74.2596 44.7333 73.9503 44.552 73.5343 44.424L71.2463 43.688C70.3183 43.4 69.6196 42.968 69.1503 42.392C68.6809 41.816 68.4463 41.1387 68.4463 40.36C68.4463 39.6773 68.6116 39.0747 68.9423 38.552C69.2836 38.0293 69.7529 37.624 70.3503 37.336C70.9583 37.0373 71.6516 36.888 72.4303 36.888C73.1449 36.888 73.8009 37.016 74.3983 37.272C74.9956 37.5173 75.5076 37.864 75.9343 38.312C76.3716 38.7493 76.6969 39.2667 76.9103 39.864L75.1183 40.664C74.8836 40.0667 74.5316 39.608 74.0623 39.288C73.5929 38.9573 73.0489 38.792 72.4303 38.792C72.0676 38.792 71.7476 38.856 71.4703 38.984C71.1929 39.1013 70.9743 39.272 70.8143 39.496C70.6649 39.7093 70.5903 39.9653 70.5903 40.264C70.5903 40.5947 70.6969 40.888 70.9103 41.144C71.1236 41.3893 71.4489 41.5813 71.8863 41.72L74.0783 42.408C75.0276 42.7173 75.7369 43.144 76.2063 43.688C76.6863 44.232 76.9263 44.904 76.9263 45.704C76.9263 46.3867 76.7503 46.9893 76.3983 47.512C76.0463 48.0347 75.5609 48.4453 74.9423 48.744C74.3236 49.0427 73.6036 49.192 72.7823 49.192ZM81.8136 49.192C81.1416 49.192 80.555 49.0427 80.0536 48.744C79.563 48.4453 79.1843 48.0293 78.9176 47.496C78.6616 46.9627 78.5336 46.3387 78.5336 45.624V40.296H80.6296V45.448C80.6296 45.8107 80.699 46.1307 80.8376 46.408C80.987 46.6747 81.195 46.888 81.4616 47.048C81.739 47.1973 82.0483 47.272 82.3896 47.272C82.731 47.272 83.035 47.1973 83.3016 47.048C83.5683 46.888 83.7763 46.6693 83.9256 46.392C84.075 46.1147 84.1496 45.784 84.1496 45.4V40.296H86.2456V49H84.2616V47.288L84.4376 47.592C84.235 48.1253 83.899 48.5253 83.4296 48.792C82.971 49.0587 82.4323 49.192 81.8136 49.192ZM92.386 49.192C91.522 49.192 90.7434 48.9947 90.05 48.6C89.3674 48.1947 88.8287 47.6507 88.434 46.968C88.0394 46.2747 87.842 45.496 87.842 44.632C87.842 43.768 88.0394 42.9947 88.434 42.312C88.8287 41.6293 89.3674 41.0907 90.05 40.696C90.7434 40.3013 91.522 40.104 92.386 40.104C93.0047 40.104 93.5807 40.216 94.114 40.44C94.6474 40.6533 95.106 40.952 95.49 41.336C95.8847 41.7093 96.1674 42.1573 96.338 42.68L94.498 43.48C94.338 43.0427 94.066 42.6907 93.682 42.424C93.3087 42.1573 92.8767 42.024 92.386 42.024C91.9274 42.024 91.5167 42.136 91.154 42.36C90.802 42.584 90.5247 42.8933 90.322 43.288C90.1194 43.6827 90.018 44.136 90.018 44.648C90.018 45.16 90.1194 45.6133 90.322 46.008C90.5247 46.4027 90.802 46.712 91.154 46.936C91.5167 47.16 91.9274 47.272 92.386 47.272C92.8874 47.272 93.3247 47.1387 93.698 46.872C94.0714 46.6053 94.338 46.248 94.498 45.8L96.338 46.632C96.1674 47.1227 95.89 47.5653 95.506 47.96C95.122 48.344 94.6634 48.648 94.13 48.872C93.5967 49.0853 93.0154 49.192 92.386 49.192ZM102.12 49.192C101.256 49.192 100.478 48.9947 99.7844 48.6C99.1017 48.1947 98.5631 47.6507 98.1684 46.968C97.7737 46.2747 97.5764 45.496 97.5764 44.632C97.5764 43.768 97.7737 42.9947 98.1684 42.312C98.5631 41.6293 99.1017 41.0907 99.7844 40.696C100.478 40.3013 101.256 40.104 102.12 40.104C102.739 40.104 103.315 40.216 103.848 40.44C104.382 40.6533 104.84 40.952 105.224 41.336C105.619 41.7093 105.902 42.1573 106.072 42.68L104.232 43.48C104.072 43.0427 103.8 42.6907 103.416 42.424C103.043 42.1573 102.611 42.024 102.12 42.024C101.662 42.024 101.251 42.136 100.888 42.36C100.536 42.584 100.259 42.8933 100.056 43.288C99.8537 43.6827 99.7524 44.136 99.7524 44.648C99.7524 45.16 99.8537 45.6133 100.056 46.008C100.259 46.4027 100.536 46.712 100.888 46.936C101.251 47.16 101.662 47.272 102.12 47.272C102.622 47.272 103.059 47.1387 103.432 46.872C103.806 46.6053 104.072 46.248 104.232 45.8L106.072 46.632C105.902 47.1227 105.624 47.5653 105.24 47.96C104.856 48.344 104.398 48.648 103.864 48.872C103.331 49.0853 102.75 49.192 102.12 49.192ZM111.791 49.192C110.895 49.192 110.111 48.9893 109.439 48.584C108.767 48.1787 108.244 47.6293 107.871 46.936C107.497 46.2427 107.311 45.4747 107.311 44.632C107.311 43.7573 107.497 42.984 107.871 42.312C108.255 41.6293 108.772 41.0907 109.423 40.696C110.084 40.3013 110.82 40.104 111.631 40.104C112.313 40.104 112.911 40.216 113.423 40.44C113.945 40.664 114.388 40.9733 114.751 41.368C115.113 41.7627 115.391 42.216 115.583 42.728C115.775 43.2293 115.871 43.7733 115.871 44.36C115.871 44.5093 115.86 44.664 115.839 44.824C115.828 44.984 115.801 45.1227 115.759 45.24H109.039V43.64H114.575L113.583 44.392C113.679 43.9013 113.652 43.464 113.503 43.08C113.364 42.696 113.129 42.392 112.799 42.168C112.479 41.944 112.089 41.832 111.631 41.832C111.193 41.832 110.804 41.944 110.463 42.168C110.121 42.3813 109.86 42.7013 109.679 43.128C109.508 43.544 109.444 44.0507 109.487 44.648C109.444 45.1813 109.513 45.656 109.695 46.072C109.887 46.4773 110.164 46.792 110.527 47.016C110.9 47.24 111.327 47.352 111.807 47.352C112.287 47.352 112.692 47.2507 113.023 47.048C113.364 46.8453 113.631 46.5733 113.823 46.232L115.519 47.064C115.348 47.48 115.081 47.848 114.719 48.168C114.356 48.488 113.924 48.7387 113.423 48.92C112.932 49.1013 112.388 49.192 111.791 49.192ZM120.772 49.192C119.844 49.192 119.033 48.9733 118.34 48.536C117.657 48.088 117.188 47.4853 116.932 46.728L118.5 45.976C118.724 46.4667 119.033 46.8507 119.428 47.128C119.833 47.4053 120.281 47.544 120.772 47.544C121.156 47.544 121.46 47.4587 121.684 47.288C121.908 47.1173 122.02 46.8933 122.02 46.616C122.02 46.4453 121.972 46.3067 121.876 46.2C121.79 46.0827 121.668 45.9867 121.508 45.912C121.358 45.8267 121.193 45.7573 121.012 45.704L119.588 45.304C118.852 45.0907 118.292 44.7653 117.908 44.328C117.534 43.8907 117.348 43.3733 117.348 42.776C117.348 42.2427 117.481 41.7787 117.748 41.384C118.025 40.9787 118.404 40.664 118.884 40.44C119.374 40.216 119.934 40.104 120.564 40.104C121.385 40.104 122.11 40.3013 122.74 40.696C123.369 41.0907 123.817 41.6453 124.084 42.36L122.484 43.112C122.334 42.7173 122.084 42.4027 121.732 42.168C121.38 41.9333 120.985 41.816 120.548 41.816C120.196 41.816 119.918 41.896 119.716 42.056C119.513 42.216 119.412 42.424 119.412 42.68C119.412 42.84 119.454 42.9787 119.54 43.096C119.625 43.2133 119.742 43.3093 119.892 43.384C120.052 43.4587 120.233 43.528 120.436 43.592L121.828 44.008C122.542 44.2213 123.092 44.5413 123.476 44.968C123.87 45.3947 124.068 45.9173 124.068 46.536C124.068 47.0587 123.929 47.5227 123.652 47.928C123.374 48.3227 122.99 48.632 122.5 48.856C122.009 49.08 121.433 49.192 120.772 49.192ZM128.99 49.192C128.062 49.192 127.252 48.9733 126.558 48.536C125.876 48.088 125.406 47.4853 125.15 46.728L126.718 45.976C126.942 46.4667 127.252 46.8507 127.646 47.128C128.052 47.4053 128.5 47.544 128.99 47.544C129.374 47.544 129.678 47.4587 129.902 47.288C130.126 47.1173 130.238 46.8933 130.238 46.616C130.238 46.4453 130.19 46.3067 130.094 46.2C130.009 46.0827 129.886 45.9867 129.726 45.912C129.577 45.8267 129.412 45.7573 129.23 45.704L127.806 45.304C127.07 45.0907 126.51 44.7653 126.126 44.328C125.753 43.8907 125.566 43.3733 125.566 42.776C125.566 42.2427 125.7 41.7787 125.966 41.384C126.244 40.9787 126.622 40.664 127.102 40.44C127.593 40.216 128.153 40.104 128.782 40.104C129.604 40.104 130.329 40.3013 130.958 40.696C131.588 41.0907 132.036 41.6453 132.302 42.36L130.702 43.112C130.553 42.7173 130.302 42.4027 129.95 42.168C129.598 41.9333 129.204 41.816 128.766 41.816C128.414 41.816 128.137 41.896 127.934 42.056C127.732 42.216 127.63 42.424 127.63 42.68C127.63 42.84 127.673 42.9787 127.758 43.096C127.844 43.2133 127.961 43.3093 128.11 43.384C128.27 43.4587 128.452 43.528 128.654 43.592L130.046 44.008C130.761 44.2213 131.31 44.5413 131.694 44.968C132.089 45.3947 132.286 45.9173 132.286 46.536C132.286 47.0587 132.148 47.5227 131.87 47.928C131.593 48.3227 131.209 48.632 130.718 48.856C130.228 49.08 129.652 49.192 128.99 49.192ZM134.905 49V42.168H133.369V40.296H134.905V40.008C134.905 39.3467 135.038 38.7867 135.305 38.328C135.582 37.8587 135.966 37.5013 136.457 37.256C136.948 37.0107 137.529 36.888 138.201 36.888C138.329 36.888 138.468 36.8987 138.617 36.92C138.777 36.9307 138.91 36.9467 139.017 36.968V38.776C138.91 38.7547 138.809 38.744 138.713 38.744C138.628 38.7333 138.548 38.728 138.473 38.728C138.004 38.728 137.641 38.8347 137.385 39.048C137.129 39.2507 137.001 39.5707 137.001 40.008V40.296H138.937V42.168H137.001V49H134.905ZM143.501 49.192C142.829 49.192 142.242 49.0427 141.741 48.744C141.25 48.4453 140.872 48.0293 140.605 47.496C140.349 46.9627 140.221 46.3387 140.221 45.624V40.296H142.317V45.448C142.317 45.8107 142.386 46.1307 142.525 46.408C142.674 46.6747 142.882 46.888 143.149 47.048C143.426 47.1973 143.736 47.272 144.077 47.272C144.418 47.272 144.722 47.1973 144.989 47.048C145.256 46.888 145.464 46.6693 145.613 46.392C145.762 46.1147 145.837 45.784 145.837 45.4V40.296H147.933V49H145.949V47.288L146.125 47.592C145.922 48.1253 145.586 48.5253 145.117 48.792C144.658 49.0587 144.12 49.192 143.501 49.192ZM149.882 49V36.888H151.978V49H149.882ZM153.913 49V36.888H156.009V49H153.913ZM160.964 49V37.08H165.412C166.222 37.08 166.937 37.2293 167.556 37.528C168.185 37.816 168.676 38.2427 169.028 38.808C169.38 39.3627 169.556 40.04 169.556 40.84C169.556 41.6293 169.374 42.3067 169.012 42.872C168.66 43.4267 168.174 43.8533 167.556 44.152C166.937 44.4507 166.222 44.6 165.412 44.6H163.14V49H160.964ZM163.14 42.68H165.444C165.838 42.68 166.18 42.6053 166.468 42.456C166.756 42.296 166.98 42.0773 167.14 41.8C167.3 41.5227 167.38 41.2027 167.38 40.84C167.38 40.4667 167.3 40.1467 167.14 39.88C166.98 39.6027 166.756 39.3893 166.468 39.24C166.18 39.08 165.838 39 165.444 39H163.14V42.68ZM171.163 49V40.296H173.131V42.232L172.971 41.944C173.173 41.2933 173.488 40.84 173.915 40.584C174.352 40.328 174.875 40.2 175.483 40.2H175.995V42.056H175.243C174.645 42.056 174.165 42.2427 173.803 42.616C173.44 42.9787 173.259 43.4907 173.259 44.152V49H171.163ZM181.403 49.192C180.55 49.192 179.771 48.9947 179.067 48.6C178.374 48.2053 177.819 47.6667 177.403 46.984C176.998 46.3013 176.795 45.5227 176.795 44.648C176.795 43.7733 176.998 42.9947 177.403 42.312C177.819 41.6293 178.374 41.0907 179.067 40.696C179.76 40.3013 180.539 40.104 181.403 40.104C182.256 40.104 183.03 40.3013 183.723 40.696C184.416 41.0907 184.966 41.6293 185.371 42.312C185.787 42.984 185.995 43.7627 185.995 44.648C185.995 45.5227 185.787 46.3013 185.371 46.984C184.955 47.6667 184.4 48.2053 183.707 48.6C183.014 48.9947 182.246 49.192 181.403 49.192ZM181.403 47.272C181.872 47.272 182.283 47.16 182.635 46.936C182.998 46.712 183.28 46.4027 183.483 46.008C183.696 45.6027 183.803 45.1493 183.803 44.648C183.803 44.136 183.696 43.688 183.483 43.304C183.28 42.9093 182.998 42.6 182.635 42.376C182.283 42.1413 181.872 42.024 181.403 42.024C180.923 42.024 180.502 42.1413 180.139 42.376C179.776 42.6 179.488 42.9093 179.275 43.304C179.072 43.688 178.971 44.136 178.971 44.648C178.971 45.1493 179.072 45.6027 179.275 46.008C179.488 46.4027 179.776 46.712 180.139 46.936C180.502 47.16 180.923 47.272 181.403 47.272ZM186.385 52.536C186.246 52.536 186.102 52.5307 185.953 52.52C185.803 52.5093 185.681 52.4933 185.585 52.472V50.648C185.777 50.68 185.969 50.696 186.161 50.696C186.609 50.696 186.955 50.5893 187.201 50.376C187.457 50.1733 187.585 49.8587 187.585 49.432V40.296H189.681V49.432C189.681 50.0933 189.547 50.6533 189.281 51.112C189.014 51.5813 188.63 51.9333 188.129 52.168C187.638 52.4133 187.057 52.536 186.385 52.536ZM187.585 39.32V37.08H189.681V39.32H187.585ZM195.744 49.192C194.848 49.192 194.064 48.9893 193.392 48.584C192.72 48.1787 192.197 47.6293 191.824 46.936C191.451 46.2427 191.264 45.4747 191.264 44.632C191.264 43.7573 191.451 42.984 191.824 42.312C192.208 41.6293 192.725 41.0907 193.376 40.696C194.037 40.3013 194.773 40.104 195.584 40.104C196.267 40.104 196.864 40.216 197.376 40.44C197.899 40.664 198.341 40.9733 198.704 41.368C199.067 41.7627 199.344 42.216 199.536 42.728C199.728 43.2293 199.824 43.7733 199.824 44.36C199.824 44.5093 199.813 44.664 199.792 44.824C199.781 44.984 199.755 45.1227 199.712 45.24H192.992V43.64H198.528L197.536 44.392C197.632 43.9013 197.605 43.464 197.456 43.08C197.317 42.696 197.083 42.392 196.752 42.168C196.432 41.944 196.043 41.832 195.584 41.832C195.147 41.832 194.757 41.944 194.416 42.168C194.075 42.3813 193.813 42.7013 193.632 43.128C193.461 43.544 193.397 44.0507 193.44 44.648C193.397 45.1813 193.467 45.656 193.648 46.072C193.84 46.4773 194.117 46.792 194.48 47.016C194.853 47.24 195.28 47.352 195.76 47.352C196.24 47.352 196.645 47.2507 196.976 47.048C197.317 46.8453 197.584 46.5733 197.776 46.232L199.472 47.064C199.301 47.48 199.035 47.848 198.672 48.168C198.309 48.488 197.877 48.7387 197.376 48.92C196.885 49.1013 196.341 49.192 195.744 49.192ZM205.605 49.192C204.741 49.192 203.962 48.9947 203.269 48.6C202.586 48.1947 202.047 47.6507 201.653 46.968C201.258 46.2747 201.061 45.496 201.061 44.632C201.061 43.768 201.258 42.9947 201.653 42.312C202.047 41.6293 202.586 41.0907 203.269 40.696C203.962 40.3013 204.741 40.104 205.605 40.104C206.223 40.104 206.799 40.216 207.333 40.44C207.866 40.6533 208.325 40.952 208.709 41.336C209.103 41.7093 209.386 42.1573 209.557 42.68L207.717 43.48C207.557 43.0427 207.285 42.6907 206.901 42.424C206.527 42.1573 206.095 42.024 205.605 42.024C205.146 42.024 204.735 42.136 204.373 42.36C204.021 42.584 203.743 42.8933 203.541 43.288C203.338 43.6827 203.237 44.136 203.237 44.648C203.237 45.16 203.338 45.6133 203.541 46.008C203.743 46.4027 204.021 46.712 204.373 46.936C204.735 47.16 205.146 47.272 205.605 47.272C206.106 47.272 206.543 47.1387 206.917 46.872C207.29 46.6053 207.557 46.248 207.717 45.8L209.557 46.632C209.386 47.1227 209.109 47.5653 208.725 47.96C208.341 48.344 207.882 48.648 207.349 48.872C206.815 49.0853 206.234 49.192 205.605 49.192ZM215.115 49.096C214.134 49.096 213.371 48.8293 212.827 48.296C212.294 47.752 212.027 46.9893 212.027 46.008V42.168H210.523V40.296H210.683C211.11 40.296 211.44 40.184 211.675 39.96C211.91 39.736 212.027 39.4107 212.027 38.984V38.312H214.123V40.296H216.123V42.168H214.123V45.896C214.123 46.184 214.171 46.4293 214.267 46.632C214.374 46.8347 214.534 46.9893 214.747 47.096C214.971 47.2027 215.254 47.256 215.595 47.256C215.67 47.256 215.755 47.2507 215.851 47.24C215.958 47.2293 216.059 47.2187 216.155 47.208V49C216.006 49.0213 215.835 49.0427 215.643 49.064C215.451 49.0853 215.275 49.096 215.115 49.096ZM221.069 49.192C220.141 49.192 219.33 48.9733 218.637 48.536C217.954 48.088 217.485 47.4853 217.229 46.728L218.797 45.976C219.021 46.4667 219.33 46.8507 219.725 47.128C220.13 47.4053 220.578 47.544 221.069 47.544C221.453 47.544 221.757 47.4587 221.981 47.288C222.205 47.1173 222.317 46.8933 222.317 46.616C222.317 46.4453 222.269 46.3067 222.173 46.2C222.087 46.0827 221.965 45.9867 221.805 45.912C221.655 45.8267 221.49 45.7573 221.309 45.704L219.885 45.304C219.149 45.0907 218.589 44.7653 218.205 44.328C217.831 43.8907 217.645 43.3733 217.645 42.776C217.645 42.2427 217.778 41.7787 218.045 41.384C218.322 40.9787 218.701 40.664 219.181 40.44C219.671 40.216 220.231 40.104 220.861 40.104C221.682 40.104 222.407 40.3013 223.037 40.696C223.666 41.0907 224.114 41.6453 224.381 42.36L222.781 43.112C222.631 42.7173 222.381 42.4027 222.029 42.168C221.677 41.9333 221.282 41.816 220.845 41.816C220.493 41.816 220.215 41.896 220.013 42.056C219.81 42.216 219.709 42.424 219.709 42.68C219.709 42.84 219.751 42.9787 219.837 43.096C219.922 43.2133 220.039 43.3093 220.189 43.384C220.349 43.4587 220.53 43.528 220.733 43.592L222.125 44.008C222.839 44.2213 223.389 44.5413 223.773 44.968C224.167 45.3947 224.365 45.9173 224.365 46.536C224.365 47.0587 224.226 47.5227 223.949 47.928C223.671 48.3227 223.287 48.632 222.797 48.856C222.306 49.08 221.73 49.192 221.069 49.192Z" fill="#131126"/>
<rect x="260.374" y="6" width="47.3743" height="50" rx="5" fill="#FAE0E1"/>
<path fill-rule="evenodd" clip-rule="evenodd" d="M280.039 22.5001C277.509 22.5001 275.874 24.2331 275.874 26.9161V35.0841C275.874 37.7671 277.509 39.5001 280.039 39.5001H288.707C291.238 39.5001 292.874 37.7671 292.874 35.0841V26.9161C292.874 24.2331 291.238 22.5001 288.708 22.5001H280.039ZM288.707 41.0001H280.039C276.65 41.0001 274.374 38.6221 274.374 35.0841V26.9161C274.374 23.3781 276.65 21.0001 280.039 21.0001H288.708C292.097 21.0001 294.374 23.3781 294.374 26.9161V35.0841C294.374 38.6221 292.097 41.0001 288.707 41.0001Z" fill="#131126"/>
<path fill-rule="evenodd" clip-rule="evenodd" d="M283.188 34.1231C282.997 34.1231 282.804 34.0501 282.658 33.9031L280.284 31.5301C279.991 31.2371 279.991 30.7631 280.284 30.4701C280.577 30.1771 281.051 30.1771 281.344 30.4701L283.188 32.3121L287.404 28.0971C287.697 27.8041 288.171 27.8041 288.464 28.0971C288.757 28.3901 288.757 28.8641 288.464 29.1571L283.718 33.9031C283.572 34.0501 283.38 34.1231 283.188 34.1231Z" fill="#131126"/>
<path d="M330.005 23L336.077 15.176L336.629 15.752C336.389 15.928 336.157 16.072 335.933 16.184C335.709 16.296 335.469 16.376 335.213 16.424C334.957 16.472 334.685 16.496 334.397 16.496C333.309 16.496 332.341 16.248 331.493 15.752C330.645 15.256 329.973 14.584 329.477 13.736C328.997 12.872 328.757 11.896 328.757 10.808C328.757 9.656 329.021 8.632 329.549 7.736C330.093 6.84 330.829 6.136 331.757 5.624C332.701 5.096 333.773 4.832 334.973 4.832C336.189 4.832 337.261 5.088 338.189 5.6C339.117 6.112 339.845 6.816 340.373 7.712C340.917 8.592 341.189 9.608 341.189 10.76C341.189 11.336 341.125 11.912 340.997 12.488C340.869 13.064 340.637 13.68 340.301 14.336C339.981 14.976 339.517 15.704 338.909 16.52L333.917 23H330.005ZM334.973 13.76C335.533 13.76 336.029 13.64 336.461 13.4C336.909 13.144 337.261 12.792 337.517 12.344C337.773 11.88 337.901 11.36 337.901 10.784C337.901 10.176 337.765 9.648 337.493 9.2C337.237 8.752 336.893 8.4 336.461 8.144C336.029 7.888 335.533 7.76 334.973 7.76C334.429 7.76 333.933 7.888 333.485 8.144C333.037 8.4 332.677 8.752 332.405 9.2C332.149 9.648 332.021 10.176 332.021 10.784C332.021 11.36 332.149 11.88 332.405 12.344C332.677 12.792 333.037 13.144 333.485 13.4C333.933 13.64 334.429 13.76 334.973 13.76ZM343.914 23L351.354 7.88H342.93V5.12H354.786V7.88L347.514 23H343.914ZM363.176 23.288C361.88 23.288 360.752 23.048 359.792 22.568C358.848 22.072 358.112 21.408 357.584 20.576C357.072 19.744 356.816 18.832 356.816 17.84C356.816 16.672 357.128 15.688 357.752 14.888C358.376 14.072 359.28 13.472 360.464 13.088L360.272 13.88C359.424 13.608 358.752 13.08 358.256 12.296C357.776 11.512 357.536 10.648 357.536 9.704C357.536 8.76 357.776 7.92 358.256 7.184C358.736 6.448 359.4 5.872 360.248 5.456C361.096 5.04 362.072 4.832 363.176 4.832C364.264 4.832 365.224 5.04 366.056 5.456C366.904 5.872 367.568 6.448 368.048 7.184C368.544 7.92 368.792 8.76 368.792 9.704C368.792 10.664 368.544 11.536 368.048 12.32C367.568 13.088 366.904 13.616 366.056 13.904L365.888 13.064C367.072 13.48 367.976 14.096 368.6 14.912C369.224 15.712 369.536 16.696 369.536 17.864C369.536 18.856 369.272 19.768 368.744 20.6C368.232 21.416 367.496 22.072 366.536 22.568C365.592 23.048 364.472 23.288 363.176 23.288ZM363.176 20.528C363.8 20.528 364.344 20.416 364.808 20.192C365.272 19.952 365.632 19.624 365.888 19.208C366.144 18.776 366.272 18.288 366.272 17.744C366.272 17.184 366.144 16.704 365.888 16.304C365.632 15.888 365.272 15.568 364.808 15.344C364.344 15.104 363.8 14.984 363.176 14.984C362.552 14.984 362.008 15.104 361.544 15.344C361.096 15.568 360.744 15.888 360.488 16.304C360.232 16.704 360.104 17.184 360.104 17.744C360.104 18.288 360.232 18.776 360.488 19.208C360.744 19.624 361.096 19.952 361.544 20.192C362.008 20.416 362.552 20.528 363.176 20.528ZM363.176 12.224C363.64 12.224 364.048 12.12 364.4 11.912C364.752 11.704 365.024 11.432 365.216 11.096C365.424 10.744 365.528 10.344 365.528 9.896C365.528 9.448 365.424 9.056 365.216 8.72C365.024 8.368 364.752 8.096 364.4 7.904C364.048 7.696 363.64 7.592 363.176 7.592C362.712 7.592 362.296 7.696 361.928 7.904C361.576 8.096 361.296 8.368 361.088 8.72C360.896 9.056 360.8 9.448 360.8 9.896C360.8 10.344 360.896 10.744 361.088 11.096C361.296 11.432 361.576 11.704 361.928 11.912C362.296 12.12 362.712 12.224 363.176 12.224ZM377.332 23V18.344H372.676V15.632H377.332V11H380.044V15.632H384.676V18.344H380.044V23H377.332ZM334.501 49.192C333.647 49.192 332.858 49.0373 332.133 48.728C331.418 48.4187 330.789 47.9867 330.245 47.432C329.711 46.8773 329.295 46.2267 328.997 45.48C328.698 44.7333 328.549 43.9173 328.549 43.032C328.549 42.1467 328.693 41.3307 328.981 40.584C329.279 39.8267 329.695 39.176 330.229 38.632C330.773 38.0773 331.407 37.6507 332.133 37.352C332.858 37.0427 333.647 36.888 334.501 36.888C335.354 36.888 336.117 37.032 336.789 37.32C337.471 37.608 338.047 37.992 338.517 38.472C338.986 38.9413 339.322 39.4587 339.525 40.024L337.573 40.936C337.349 40.3387 336.97 39.848 336.437 39.464C335.903 39.0693 335.258 38.872 334.501 38.872C333.754 38.872 333.093 39.048 332.517 39.4C331.951 39.752 331.509 40.2373 331.189 40.856C330.879 41.4747 330.725 42.2 330.725 43.032C330.725 43.864 330.879 44.5947 331.189 45.224C331.509 45.8427 331.951 46.328 332.517 46.68C333.093 47.032 333.754 47.208 334.501 47.208C335.258 47.208 335.903 47.016 336.437 46.632C336.97 46.2373 337.349 45.7413 337.573 45.144L339.525 46.056C339.322 46.6213 338.986 47.144 338.517 47.624C338.047 48.0933 337.471 48.472 336.789 48.76C336.117 49.048 335.354 49.192 334.501 49.192ZM341.115 49V36.888H343.211V49H341.115ZM345.146 49V40.296H347.242V49H345.146ZM345.146 39.32V37.08H347.242V39.32H345.146ZM353.306 49.192C352.41 49.192 351.626 48.9893 350.954 48.584C350.282 48.1787 349.759 47.6293 349.386 46.936C349.012 46.2427 348.826 45.4747 348.826 44.632C348.826 43.7573 349.012 42.984 349.386 42.312C349.77 41.6293 350.287 41.0907 350.938 40.696C351.599 40.3013 352.335 40.104 353.146 40.104C353.828 40.104 354.426 40.216 354.938 40.44C355.46 40.664 355.903 40.9733 356.266 41.368C356.628 41.7627 356.906 42.216 357.098 42.728C357.29 43.2293 357.386 43.7733 357.386 44.36C357.386 44.5093 357.375 44.664 357.354 44.824C357.343 44.984 357.316 45.1227 357.274 45.24H350.554V43.64H356.09L355.098 44.392C355.194 43.9013 355.167 43.464 355.018 43.08C354.879 42.696 354.644 42.392 354.314 42.168C353.994 41.944 353.604 41.832 353.146 41.832C352.708 41.832 352.319 41.944 351.978 42.168C351.636 42.3813 351.375 42.7013 351.194 43.128C351.023 43.544 350.959 44.0507 351.002 44.648C350.959 45.1813 351.028 45.656 351.21 46.072C351.402 46.4773 351.679 46.792 352.042 47.016C352.415 47.24 352.842 47.352 353.322 47.352C353.802 47.352 354.207 47.2507 354.538 47.048C354.879 46.8453 355.146 46.5733 355.338 46.232L357.034 47.064C356.863 47.48 356.596 47.848 356.234 48.168C355.871 48.488 355.439 48.7387 354.938 48.92C354.447 49.1013 353.903 49.192 353.306 49.192ZM358.975 49V40.296H360.943V42.008L360.783 41.704C360.985 41.1813 361.316 40.7867 361.775 40.52C362.244 40.2427 362.788 40.104 363.407 40.104C364.047 40.104 364.612 40.2427 365.103 40.52C365.604 40.7973 365.993 41.1867 366.271 41.688C366.548 42.1787 366.687 42.7493 366.687 43.4V49H364.591V43.896C364.591 43.512 364.516 43.1813 364.367 42.904C364.217 42.6267 364.009 42.4133 363.743 42.264C363.487 42.104 363.183 42.024 362.831 42.024C362.489 42.024 362.185 42.104 361.919 42.264C361.652 42.4133 361.444 42.6267 361.295 42.904C361.145 43.1813 361.071 43.512 361.071 43.896V49H358.975ZM372.427 49.096C371.446 49.096 370.683 48.8293 370.139 48.296C369.606 47.752 369.339 46.9893 369.339 46.008V42.168H367.835V40.296H367.995C368.422 40.296 368.752 40.184 368.987 39.96C369.222 39.736 369.339 39.4107 369.339 38.984V38.312H371.435V40.296H373.435V42.168H371.435V45.896C371.435 46.184 371.483 46.4293 371.579 46.632C371.686 46.8347 371.846 46.9893 372.059 47.096C372.283 47.2027 372.566 47.256 372.907 47.256C372.982 47.256 373.067 47.2507 373.163 47.24C373.27 47.2293 373.371 47.2187 373.467 47.208V49C373.318 49.0213 373.147 49.0427 372.955 49.064C372.763 49.0853 372.587 49.096 372.427 49.096ZM378.38 49.192C377.452 49.192 376.642 48.9733 375.948 48.536C375.266 48.088 374.796 47.4853 374.54 46.728L376.108 45.976C376.332 46.4667 376.642 46.8507 377.036 47.128C377.442 47.4053 377.89 47.544 378.38 47.544C378.764 47.544 379.068 47.4587 379.292 47.288C379.516 47.1173 379.628 46.8933 379.628 46.616C379.628 46.4453 379.58 46.3067 379.484 46.2C379.399 46.0827 379.276 45.9867 379.116 45.912C378.967 45.8267 378.802 45.7573 378.62 45.704L377.196 45.304C376.46 45.0907 375.9 44.7653 375.516 44.328C375.143 43.8907 374.956 43.3733 374.956 42.776C374.956 42.2427 375.09 41.7787 375.356 41.384C375.634 40.9787 376.012 40.664 376.492 40.44C376.983 40.216 377.543 40.104 378.172 40.104C378.994 40.104 379.719 40.3013 380.348 40.696C380.978 41.0907 381.426 41.6453 381.692 42.36L380.092 43.112C379.943 42.7173 379.692 42.4027 379.34 42.168C378.988 41.9333 378.594 41.816 378.156 41.816C377.804 41.816 377.527 41.896 377.324 42.056C377.122 42.216 377.02 42.424 377.02 42.68C377.02 42.84 377.063 42.9787 377.148 43.096C377.234 43.2133 377.351 43.3093 377.5 43.384C377.66 43.4587 377.842 43.528 378.044 43.592L379.436 44.008C380.151 44.2213 380.7 44.5413 381.084 44.968C381.479 45.3947 381.676 45.9173 381.676 46.536C381.676 47.0587 381.538 47.5227 381.26 47.928C380.983 48.3227 380.599 48.632 380.108 48.856C379.618 49.08 379.042 49.192 378.38 49.192ZM388.419 49V39H385.331V37.08H393.651V39H390.611V49H388.419ZM397.934 49.192C397.08 49.192 396.302 48.9947 395.598 48.6C394.904 48.2053 394.35 47.6667 393.934 46.984C393.528 46.3013 393.326 45.5227 393.326 44.648C393.326 43.7733 393.528 42.9947 393.934 42.312C394.35 41.6293 394.904 41.0907 395.598 40.696C396.291 40.3013 397.07 40.104 397.934 40.104C398.787 40.104 399.56 40.3013 400.254 40.696C400.947 41.0907 401.496 41.6293 401.902 42.312C402.318 42.984 402.526 43.7627 402.526 44.648C402.526 45.5227 402.318 46.3013 401.902 46.984C401.486 47.6667 400.931 48.2053 400.238 48.6C399.544 48.9947 398.776 49.192 397.934 49.192ZM397.934 47.272C398.403 47.272 398.814 47.16 399.166 46.936C399.528 46.712 399.811 46.4027 400.014 46.008C400.227 45.6027 400.334 45.1493 400.334 44.648C400.334 44.136 400.227 43.688 400.014 43.304C399.811 42.9093 399.528 42.6 399.166 42.376C398.814 42.1413 398.403 42.024 397.934 42.024C397.454 42.024 397.032 42.1413 396.67 42.376C396.307 42.6 396.019 42.9093 395.806 43.304C395.603 43.688 395.502 44.136 395.502 44.648C395.502 45.1493 395.603 45.6027 395.806 46.008C396.019 46.4027 396.307 46.712 396.67 46.936C397.032 47.16 397.454 47.272 397.934 47.272ZM408.163 49.192C407.32 49.192 406.568 48.9947 405.907 48.6C405.246 48.1947 404.723 47.6453 404.339 46.952C403.955 46.2587 403.763 45.4907 403.763 44.648C403.763 43.7947 403.955 43.0267 404.339 42.344C404.723 41.6613 405.246 41.1173 405.907 40.712C406.579 40.3067 407.326 40.104 408.147 40.104C408.808 40.104 409.395 40.2373 409.907 40.504C410.43 40.76 410.84 41.1227 411.139 41.592L410.819 42.024V36.888H412.915V49H410.931V47.32L411.155 47.736C410.856 48.2053 410.44 48.568 409.907 48.824C409.374 49.0693 408.792 49.192 408.163 49.192ZM408.387 47.272C408.867 47.272 409.288 47.16 409.651 46.936C410.014 46.712 410.296 46.4027 410.499 46.008C410.712 45.6133 410.819 45.16 410.819 44.648C410.819 44.1467 410.712 43.6987 410.499 43.304C410.296 42.8987 410.014 42.584 409.651 42.36C409.288 42.136 408.867 42.024 408.387 42.024C407.918 42.024 407.496 42.1413 407.123 42.376C406.75 42.6 406.456 42.9093 406.243 43.304C406.04 43.688 405.939 44.136 405.939 44.648C405.939 45.16 406.04 45.6133 406.243 46.008C406.456 46.4027 406.75 46.712 407.123 46.936C407.496 47.16 407.918 47.272 408.387 47.272ZM417.505 49.192C416.897 49.192 416.369 49.0907 415.921 48.888C415.473 48.6853 415.126 48.3973 414.881 48.024C414.636 47.64 414.513 47.1973 414.513 46.696C414.513 46.216 414.62 45.7893 414.833 45.416C415.046 45.032 415.377 44.712 415.825 44.456C416.273 44.2 416.838 44.0187 417.521 43.912L420.369 43.448V45.048L417.921 45.464C417.505 45.5387 417.196 45.672 416.993 45.864C416.79 46.056 416.689 46.3067 416.689 46.616C416.689 46.9147 416.801 47.1547 417.025 47.336C417.26 47.5067 417.548 47.592 417.889 47.592C418.326 47.592 418.71 47.5013 419.041 47.32C419.382 47.128 419.644 46.8667 419.825 46.536C420.017 46.2053 420.113 45.8427 420.113 45.448V43.208C420.113 42.8347 419.964 42.5253 419.665 42.28C419.377 42.024 418.993 41.896 418.513 41.896C418.065 41.896 417.665 42.0187 417.313 42.264C416.972 42.4987 416.721 42.8133 416.561 43.208L414.849 42.376C415.02 41.9173 415.286 41.5227 415.649 41.192C416.022 40.8507 416.46 40.584 416.961 40.392C417.462 40.2 418.006 40.104 418.593 40.104C419.308 40.104 419.937 40.2373 420.481 40.504C421.025 40.76 421.446 41.1227 421.745 41.592C422.054 42.0507 422.209 42.5893 422.209 43.208V49H420.225V47.512L420.673 47.48C420.449 47.8533 420.182 48.168 419.873 48.424C419.564 48.6693 419.212 48.8613 418.817 49C418.422 49.128 417.985 49.192 417.505 49.192ZM425.202 52.536C424.968 52.536 424.738 52.5147 424.514 52.472C424.29 52.44 424.088 52.3813 423.906 52.296V50.536C424.045 50.568 424.21 50.6 424.402 50.632C424.605 50.664 424.792 50.68 424.962 50.68C425.442 50.68 425.789 50.568 426.002 50.344C426.226 50.12 426.424 49.8267 426.594 49.464L427.17 48.12L427.138 49.88L423.346 40.296H425.602L428.258 47.368H427.458L430.098 40.296H432.37L428.578 49.88C428.354 50.4453 428.082 50.9253 427.762 51.32C427.442 51.7147 427.069 52.0133 426.642 52.216C426.226 52.4293 425.746 52.536 425.202 52.536Z" fill="#131126"/>
</svg>
